# xmcd CD database file
#
# Track frame offsets:
#	150
#	32247
#	56670
#	84462
#	115027
#	146210
#	175285
#	204852
#	229752
#	258805
#
# Disc length: 3878 seconds
#
# Revision: 0
# Processed by: cddbd v1.5.1PL0 Copyright (c) Steve Scherf et al.
# Submitted via: CDex 1.51
#
DISCID=830f240a
DTITLE=Herbie Hancock - Takin Off
DYEAR=1900
DGENRE=Jazz
TTITLE0=watermelon man
TTITLE1=three bags full
TTITLE2=empty pockets
TTITLE3=the maze
TTITLE4=driftin
TTITLE5=alone and i
TTITLE6=watermelon man(alt)
TTITLE7=three bags full(alt)
TTITLE8=empty pockets(alt)
TTITLE9=Takin Off
EXTD=
EXTT0=
EXTT1=
EXTT2=
EXTT3=
EXTT4=
EXTT5=
EXTT6=
EXTT7=
EXTT8=
EXTT9=
PLAYORDER=
